<svg xmlns="http://www.w3.org/2000/svg" viewBox="0 0 600 600"><defs><style>.cls-1{fill:#fff;}.cls-2{fill:#333132;}</style></defs><title>monogram-circle</title><g id="Layer_2" data-name="Layer 2"><circle class="cls-1" cx="300" cy="300" r="293.09"/><path class="cls-2" d="M117.45,90.72H393.78A126.34,126.34,0,0,1,520.12,217.06V374.38A126.34,126.34,0,0,1,393.78,500.72H117.45a7.32,7.32,0,0,1-7.32-7.32V98A7.32,7.32,0,0,1,117.45,90.72Z"/><rect class="cls-1" x="133.13" y="110.93" width="51.9" height="368.27" rx="8.14"/><rect class="cls-1" x="133.13" y="425.65" width="294.95" height="53.55" rx="8.24"/><path class="cls-1" d="M297.57,244.84,255,216.59c-2.28-1.55-4.19-3.23-4.19-6.34a6.66,6.66,0,0,1,6.34-6.47,9.08,9.08,0,0,1,4.91,1.8l49.32,32.8c2.63,1.68,4.55,3.11,4.43,6.46s-1.8,4.79-4.43,6.47L262.14,284a9.38,9.38,0,0,1-5.15,2c-3.35,0-6.22-3.23-6.22-6.58.12-3,1.55-4.55,3.95-6.11Z"/><path class="cls-1" d="M409.49,301.23v12H323.31v-12Z"/></g></svg>